<?xml version="1.0" encoding="utf-8"?>
<!-- Generator: Adobe Illustrator 27.5.0, SVG Export Plug-In . SVG Version: 6.00 Build 0)  -->
<svg version="1.1" xmlns="http://www.w3.org/2000/svg" xmlns:xlink="http://www.w3.org/1999/xlink" x="0px" y="0px"
	 viewBox="0 0 500 500" style="enable-background:new 0 0 500 500;" xml:space="preserve">
<g id="BACKGROUND">
	<rect style="fill:#FFFFFF;" width="500" height="500"/>
	<g>
		<g transform="translate(0,-952.3622)" style="opacity:0.2;">
			<path style="fill:#28965A;" d="M83.766,1301.332l-4.204,14.634c-3.854,1.048-7.523,2.541-10.923,4.45l-13.48-7.403l-12.05,11.895
				l7.499,13.307c-1.934,3.356-3.446,6.978-4.508,10.783l-14.824,4.151v16.859l14.824,4.151c1.062,3.804,2.574,7.427,4.508,10.783
				l-7.499,13.307l12.05,11.895l13.48-7.402c3.4,1.91,7.069,3.402,10.923,4.45l4.204,14.634h17.078l4.204-14.634
				c3.854-1.048,7.523-2.54,10.923-4.45l13.48,7.402l12.049-11.895l-7.499-13.307c1.935-3.356,3.446-6.978,4.508-10.783l14.824-4.15
				v-16.859l-14.824-4.151c-1.062-3.804-2.573-7.427-4.508-10.783l7.499-13.307l-12.049-11.895l-13.48,7.403
				c-3.4-1.91-7.069-3.402-10.923-4.45l-4.204-14.634H83.766z M92.305,1330.095c17.562,0,31.892,14.146,31.892,31.483
				s-14.33,31.483-31.892,31.483c-17.562,0-31.892-14.146-31.892-31.483S74.743,1330.095,92.305,1330.095z"/>
		</g>
		<g transform="translate(0,-952.3622)" style="opacity:0.3;">
			<path style="fill:none;stroke:#28965A;stroke-miterlimit:10;" d="M440.242,1287.21l-3.201,11.141
				c-2.934,0.798-5.727,1.934-8.315,3.388l-10.262-5.635l-9.173,9.056l5.709,10.131c-1.473,2.555-2.623,5.313-3.432,8.209
				l-11.285,3.16v12.834l11.285,3.16c0.808,2.896,1.959,5.654,3.432,8.209l-5.709,10.131l9.173,9.056l10.262-5.635
				c2.588,1.454,5.382,2.59,8.315,3.388l3.201,11.141h13.001l3.201-11.141c2.934-0.798,5.727-1.934,8.315-3.388l10.262,5.635
				l9.173-9.056l-5.709-10.131c1.473-2.555,2.624-5.313,3.432-8.209l11.285-3.16v-12.834l-11.285-3.16
				c-0.808-2.896-1.959-5.654-3.432-8.209l5.709-10.131l-9.173-9.056l-10.262,5.635c-2.588-1.454-5.382-2.59-8.315-3.388
				l-3.201-11.141H440.242z M446.742,1309.107c13.37,0,24.279,10.77,24.279,23.968c0,13.198-10.909,23.968-24.279,23.968
				c-13.37,0-24.279-10.769-24.279-23.968C422.463,1319.877,433.372,1309.107,446.742,1309.107z"/>
		</g>
		<g transform="translate(0,-952.3622)" style="opacity:0.2;">
			<path style="fill:#28965A;" d="M400.656,979.482l-3.874,13.484c-3.551,0.966-6.932,2.341-10.065,4.101l-12.421-6.821
				l-11.103,10.961l6.91,12.262c-1.782,3.093-3.175,6.43-4.154,9.936l-13.659,3.825v15.534l13.659,3.825
				c0.978,3.505,2.371,6.843,4.154,9.936l-6.91,12.262l11.103,10.961l12.421-6.821c3.133,1.76,6.514,3.135,10.065,4.1l3.874,13.484
				h15.736l3.874-13.484c3.551-0.966,6.932-2.341,10.065-4.1l12.421,6.821l11.103-10.961l-6.91-12.262
				c1.783-3.093,3.176-6.43,4.154-9.936l13.659-3.824v-15.534l-13.659-3.825c-0.978-3.506-2.371-6.843-4.154-9.936l6.91-12.262
				l-11.103-10.961l-12.421,6.821c-3.133-1.76-6.514-3.135-10.065-4.101l-3.874-13.484H400.656z M408.524,1005.986
				c16.183,0,29.387,13.035,29.387,29.01c0,15.975-13.204,29.01-29.387,29.01c-16.182,0-29.387-13.035-29.387-29.01
				C379.137,1019.021,392.342,1005.986,408.524,1005.986z"/>
		</g>
		<g transform="translate(0,-952.3622)" style="opacity:0.3;">
			<path style="fill:none;stroke:#28965A;stroke-miterlimit:10;" d="M73.25,1011.852l-4.031,14.03
				c-3.695,1.005-7.213,2.436-10.472,4.266l-12.924-7.097l-11.553,11.405l7.189,12.758c-1.855,3.218-3.304,6.69-4.322,10.338
				l-14.212,3.979v16.163l14.212,3.979c1.018,3.647,2.467,7.12,4.322,10.338l-7.189,12.758l11.553,11.404l12.924-7.097
				c3.26,1.831,6.777,3.261,10.472,4.266l4.031,14.03h16.373l4.031-14.03c3.695-1.005,7.212-2.435,10.472-4.266l12.924,7.097
				l11.552-11.404l-7.189-12.758c1.855-3.218,3.304-6.691,4.322-10.338l14.212-3.979v-16.163l-14.212-3.979
				c-1.018-3.647-2.467-7.12-4.322-10.338l7.189-12.758l-11.552-11.405l-12.924,7.097c-3.26-1.831-6.777-3.262-10.472-4.266
				l-4.031-14.03H73.25z M81.437,1039.428c16.838,0,30.576,13.563,30.576,30.184s-13.739,30.184-30.576,30.184
				c-16.837,0-30.576-13.563-30.576-30.184S64.599,1039.428,81.437,1039.428z"/>
		</g>
		<g transform="translate(0,-952.3622)" style="opacity:0.2;">
			<path style="fill:#28965A;" d="M345.08,1370.409l-2.24,7.795c-2.053,0.558-4.007,1.353-5.819,2.37l-7.181-3.943l-6.419,6.336
				l3.994,7.089c-1.031,1.788-1.836,3.717-2.401,5.744l-7.896,2.211v8.98l7.896,2.211c0.565,2.026,1.371,3.956,2.401,5.744
				l-3.994,7.089l6.419,6.336l7.181-3.943c1.811,1.017,3.766,1.812,5.819,2.371l2.24,7.795h9.097l2.24-7.795
				c2.053-0.558,4.008-1.353,5.819-2.371l7.181,3.943l6.419-6.336l-3.994-7.089c1.031-1.788,1.836-3.717,2.401-5.744l7.896-2.211
				v-8.98l-7.896-2.211c-0.566-2.027-1.371-3.956-2.401-5.744l3.994-7.089l-6.419-6.336l-7.181,3.943
				c-1.811-1.017-3.766-1.812-5.819-2.37l-2.24-7.795H345.08z M349.628,1385.731c9.355,0,16.989,7.536,16.989,16.771
				c0,9.235-7.634,16.771-16.989,16.771c-9.355,0-16.989-7.536-16.989-16.771C332.64,1393.266,340.273,1385.731,349.628,1385.731z"
				/>
		</g>
		<g transform="translate(0,-952.3622)" style="opacity:0.2;">
			<path style="fill:#28965A;" d="M181.772,976.157l-2.24,7.795c-2.053,0.558-4.007,1.353-5.818,2.371l-7.181-3.943l-6.419,6.336
				l3.994,7.089c-1.031,1.788-1.836,3.717-2.401,5.744l-7.896,2.211v8.981l7.896,2.211c0.566,2.027,1.371,3.956,2.401,5.744
				l-3.994,7.089l6.419,6.336l7.181-3.943c1.811,1.017,3.766,1.812,5.818,2.371l2.24,7.795h9.097l2.24-7.795
				c2.053-0.558,4.007-1.353,5.818-2.371l7.181,3.943l6.419-6.336l-3.994-7.089c1.031-1.788,1.836-3.717,2.401-5.744l7.896-2.211
				v-8.981l-7.896-2.211c-0.566-2.027-1.371-3.956-2.401-5.744l3.994-7.089l-6.419-6.336l-7.181,3.943
				c-1.811-1.017-3.766-1.812-5.818-2.371l-2.24-7.795H181.772z M186.321,991.479c9.355,0,16.989,7.536,16.989,16.771
				c0,9.235-7.633,16.771-16.989,16.771s-16.989-7.536-16.989-16.771C169.332,999.015,176.966,991.479,186.321,991.479z"/>
		</g>
		<g transform="translate(0,-952.3622)" style="opacity:0.3;">
			<path style="fill:none;stroke:#28965A;stroke-miterlimit:10;" d="M42.731,1231.914l-2.24,7.795
				c-2.053,0.558-4.007,1.353-5.819,2.37l-7.181-3.943l-6.419,6.336l3.994,7.089c-1.031,1.788-1.836,3.717-2.401,5.744l-7.896,2.211
				v8.98l7.896,2.211c0.566,2.027,1.371,3.956,2.401,5.744l-3.994,7.089l6.419,6.336l7.181-3.943
				c1.811,1.017,3.766,1.812,5.819,2.371l2.24,7.795h9.097l2.24-7.795c2.053-0.558,4.007-1.353,5.818-2.371l7.181,3.943l6.419-6.336
				l-3.994-7.089c1.031-1.788,1.836-3.717,2.401-5.744l7.896-2.211v-8.98l-7.896-2.211c-0.565-2.027-1.371-3.956-2.401-5.744
				l3.994-7.089l-6.419-6.336l-7.181,3.943c-1.811-1.017-3.766-1.812-5.818-2.37l-2.24-7.795H42.731z M47.279,1247.236
				c9.355,0,16.989,7.536,16.989,16.771s-7.633,16.771-16.989,16.771c-9.355,0-16.989-7.536-16.989-16.771
				S37.924,1247.236,47.279,1247.236z"/>
		</g>
	</g>
</g>
<g id="OBJECTS">
	<g>
		
			<circle style="fill:none;stroke:#28965A;stroke-width:0.7777;stroke-miterlimit:10;stroke-dasharray:1.5919;" cx="251.67" cy="260.278" r="216.089"/>
		<circle style="fill:#6BFFB8;" cx="251.67" cy="260.278" r="207.051"/>
		<g>
			<defs>
				<circle id="SVGID_1_" cx="251.67" cy="260.278" r="198.991"/>
			</defs>
			<clipPath id="SVGID_00000006692465054557185430000011624337189366949040_">
				<use xlink:href="#SVGID_1_"  style="overflow:visible;"/>
			</clipPath>
			
				<rect x="52.679" y="61.288" style="clip-path:url(#SVGID_00000006692465054557185430000011624337189366949040_);fill:#2CEAA3;" width="397.981" height="397.981"/>
			<g style="opacity:0.3;clip-path:url(#SVGID_00000006692465054557185430000011624337189366949040_);">
				<defs>
					<polyline id="SVGID_00000049925767278423259590000006169879911502626979_" style="opacity:0.3;" points="450.661,61.288 
						450.661,459.269 52.679,459.269 52.679,61.288 					"/>
				</defs>
				<clipPath id="SVGID_00000164481869401280103520000017189764851748315310_">
					<use xlink:href="#SVGID_00000049925767278423259590000006169879911502626979_"  style="overflow:visible;"/>
				</clipPath>
				<g style="clip-path:url(#SVGID_00000164481869401280103520000017189764851748315310_);">
					<polygon style="fill:#28965A;" points="175.205,17.861 225.35,17.861 250.423,61.288 225.35,104.715 175.205,104.715 
						150.132,61.288 					"/>
					<polygon style="fill:#28965A;" points="181.163,28.18 219.392,28.18 238.507,61.288 219.392,94.395 181.163,94.395 
						162.048,61.288 					"/>
					<polygon style="fill:#28965A;" points="188.275,40.498 212.281,40.498 224.283,61.288 212.281,82.077 188.275,82.077 
						176.272,61.288 					"/>
				</g>
				<g style="clip-path:url(#SVGID_00000164481869401280103520000017189764851748315310_);">
					<polygon style="fill:none;stroke:#28965A;stroke-width:0.796;stroke-miterlimit:10;" points="177.425,415.842 227.571,415.842 
						252.644,459.269 227.571,502.696 177.425,502.696 152.353,459.269 					"/>
					<polygon style="fill:none;stroke:#28965A;stroke-width:0.796;stroke-miterlimit:10;" points="183.383,426.161 221.613,426.161 
						240.727,459.269 221.613,492.376 183.383,492.376 164.269,459.269 					"/>
					<polygon style="fill:none;stroke:#28965A;stroke-width:0.796;stroke-miterlimit:10;" points="190.495,438.48 214.501,438.48 
						226.504,459.269 214.501,480.058 190.495,480.058 178.493,459.269 					"/>
				</g>
				<g style="clip-path:url(#SVGID_00000164481869401280103520000017189764851748315310_);">
					<polygon style="fill:#28965A;" points="49.804,302.297 99.949,302.297 125.022,345.724 99.949,389.151 49.804,389.151 
						24.731,345.724 					"/>
					<polygon style="fill:#28965A;" points="55.762,312.616 93.991,312.616 113.105,345.724 93.991,378.831 55.762,378.831 
						36.647,345.724 					"/>
					<polygon style="fill:#28965A;" points="62.874,324.935 86.879,324.935 98.882,345.724 86.879,366.513 62.874,366.513 
						50.871,345.724 					"/>
				</g>
				<g style="clip-path:url(#SVGID_00000164481869401280103520000017189764851748315310_);">
					<polygon style="fill:none;stroke:#28965A;stroke-width:0.796;stroke-miterlimit:10;" points="158.047,160.246 180.617,160.246 
						191.903,179.792 180.617,199.339 158.047,199.339 146.762,179.792 					"/>
					<polygon style="fill:none;stroke:#28965A;stroke-width:0.796;stroke-miterlimit:10;" points="163.072,168.95 175.592,168.95 
						181.852,179.792 175.592,190.635 163.072,190.635 156.813,179.792 					"/>
				</g>
				<g style="clip-path:url(#SVGID_00000164481869401280103520000017189764851748315310_);">
					<polygon style="fill:none;stroke:#28965A;stroke-width:0.796;stroke-miterlimit:10;" points="435.286,238.64 466.035,238.64 
						481.409,265.27 466.035,291.899 435.286,291.899 419.912,265.27 					"/>
					<polygon style="fill:none;stroke:#28965A;stroke-width:0.796;stroke-miterlimit:10;" points="442.133,250.499 459.189,250.499 
						467.717,265.27 459.189,280.04 442.133,280.04 433.605,265.27 					"/>
				</g>
				<g style="clip-path:url(#SVGID_00000164481869401280103520000017189764851748315310_);">
					<polygon style="fill:#28965A;" points="203.337,237.312 234.086,237.312 249.46,263.941 234.086,290.57 203.337,290.57 
						187.963,263.941 					"/>
					<polygon style="fill:#28965A;" points="210.183,249.17 227.239,249.17 235.767,263.941 227.239,278.712 210.183,278.712 
						201.656,263.941 					"/>
				</g>
			</g>
			<g style="clip-path:url(#SVGID_00000006692465054557185430000011624337189366949040_);">
				<g>
					<defs>
						
							<rect id="SVGID_00000128454656621120874250000013430077232304255362_" x="193.763" y="137.7" transform="matrix(0.8261 -0.5636 0.5636 0.8261 -55.1239 159.3911)" width="73.828" height="62.61"/>
					</defs>
					<clipPath id="SVGID_00000006672982122330254780000017395528611255834016_">
						<use xlink:href="#SVGID_00000128454656621120874250000013430077232304255362_"  style="overflow:visible;"/>
					</clipPath>
					<g style="clip-path:url(#SVGID_00000006672982122330254780000017395528611255834016_);">
						<path style="fill:#2A6041;" d="M336.645,224.548c-38.246,26.091-90.589,16.202-116.68-22.043l-67.515-98.966l7.89-5.383
							l67.515,98.966c23.123,33.895,69.511,42.659,103.406,19.536L336.645,224.548z"/>
					</g>
					<g style="clip-path:url(#SVGID_00000006672982122330254780000017395528611255834016_);">
						<g>
							<path style="fill:#2A6041;" d="M283.651,34.806L181.52,104.48c-1.122,0.765-2.651,0.476-3.417-0.645l0,0
								c-0.765-1.122-0.476-2.651,0.646-3.417L280.88,30.744c1.122-0.765,2.651-0.476,3.417,0.645l0,0
								C285.062,32.511,284.773,34.041,283.651,34.806z"/>
							<path style="fill:#28965A;" d="M292.082,47.165l-102.131,69.674c-1.122,0.765-2.651,0.476-3.417-0.646l0,0
								c-0.765-1.122-0.476-2.651,0.645-3.417l102.131-69.674c1.122-0.765,2.651-0.476,3.417,0.646l0,0
								C293.493,44.87,293.204,46.4,292.082,47.165z"/>
							<path style="fill:#2CEAA3;" d="M300.513,59.524l-102.131,69.674c-1.122,0.765-2.651,0.476-3.416-0.645l0,0
								c-0.765-1.122-0.476-2.651,0.645-3.417l102.131-69.674c1.122-0.765,2.651-0.476,3.417,0.645l0,0
								C301.924,57.229,301.635,58.759,300.513,59.524z"/>
							<path style="fill:#2A6041;" d="M308.945,71.882l-102.131,69.674c-1.122,0.765-2.651,0.476-3.417-0.646l0,0
								c-0.765-1.122-0.476-2.651,0.646-3.417l102.131-69.674c1.122-0.765,2.651-0.476,3.417,0.646l0,0
								C310.355,69.588,310.066,71.117,308.945,71.882z"/>
							<path style="fill:none;stroke:#28965A;stroke-width:0.796;stroke-miterlimit:10;" d="M246.031,132.912l-30.787,21.003
								c-1.122,0.765-2.651,0.476-3.417-0.645l0,0c-0.765-1.122-0.476-2.651,0.645-3.417l30.787-21.003
								c1.122-0.765,2.651-0.476,3.417,0.646l0,0C247.442,130.617,247.153,132.147,246.031,132.912z"/>
							<path style="fill:#FFFFFF;" d="M254.462,145.271l-30.787,21.003c-1.122,0.765-2.651,0.476-3.417-0.646l0,0
								c-0.765-1.122-0.476-2.651,0.645-3.417l30.787-21.003c1.122-0.765,2.651-0.476,3.417,0.646l0,0
								C255.873,142.976,255.584,144.506,254.462,145.271z"/>
							<path style="fill:#2A6041;" d="M262.893,157.63l-30.787,21.003c-1.122,0.765-2.651,0.476-3.417-0.645v0
								c-0.765-1.122-0.476-2.651,0.645-3.417l30.787-21.003c1.122-0.765,2.651-0.476,3.417,0.646l0,0
								C264.304,155.335,264.015,156.865,262.893,157.63z"/>
							<path style="fill:none;stroke:#28965A;stroke-width:0.796;stroke-miterlimit:10;" d="M271.325,169.989l-30.787,21.003
								c-1.122,0.765-2.651,0.476-3.417-0.646l0,0c-0.765-1.122-0.476-2.651,0.646-3.417l30.787-21.003
								c1.122-0.765,2.651-0.476,3.417,0.645l0,0C272.735,167.694,272.446,169.223,271.325,169.989z"/>
							<path style="fill:#2CEAA3;" d="M351.1,133.676L248.969,203.35c-1.122,0.765-2.651,0.476-3.416-0.645l0,0
								c-0.765-1.122-0.476-2.651,0.645-3.417l102.131-69.674c1.122-0.765,2.651-0.476,3.417,0.645l0,0
								C352.511,131.382,352.222,132.911,351.1,133.676z"/>
							<path style="fill:#2A6041;" d="M352.956,150.521l-88.981,60.702c-1.122,0.765-2.651,0.476-3.417-0.645l0,0
								c-0.765-1.122-0.476-2.651,0.646-3.417l88.981-60.702c1.122-0.765,2.651-0.476,3.417,0.646l0,0
								C354.367,148.226,354.078,149.755,352.956,150.521z"/>
							<path style="fill:#28965A;" d="M354.812,167.365l-75.83,51.731c-1.122,0.765-2.651,0.476-3.417-0.645l0,0
								c-0.765-1.122-0.476-2.651,0.645-3.417l75.83-51.731c1.122-0.765,2.651-0.476,3.417,0.645l0,0
								C356.223,165.07,355.934,166.6,354.812,167.365z"/>
							<path style="fill:#2CEAA3;" d="M343.517,193.181l-36.378,24.817c-1.122,0.765-2.651,0.476-3.417-0.645v0
								c-0.765-1.122-0.476-2.651,0.645-3.416l36.378-24.817c1.122-0.765,2.651-0.476,3.417,0.645l0,0
								C344.928,190.886,344.639,192.416,343.517,193.181z"/>
						</g>
					</g>
				</g>
				<g>
					<defs>
						<polygon id="SVGID_00000085960567958099638570000003725064123762458300_" points="255.136,61.288 255.136,128.148 
							328.964,128.148 328.964,190.758 255.136,190.758 255.136,459.269 439.681,459.269 439.681,61.288 						"/>
					</defs>
					<clipPath id="SVGID_00000149365275735213412090000013015202769527170984_">
						<use xlink:href="#SVGID_00000085960567958099638570000003725064123762458300_"  style="overflow:visible;"/>
					</clipPath>
					<g style="clip-path:url(#SVGID_00000149365275735213412090000013015202769527170984_);">
						<path style="fill:#2A6041;" d="M431.557,459.269h-9.551V339.467c0-41.032-33.381-74.412-74.412-74.412
							c-46.298,0-83.965-37.667-83.965-83.965V61.287h9.552V181.09c0,41.031,33.381,74.413,74.412,74.413
							c46.298,0,83.965,37.666,83.965,83.964V459.269z"/>
						<path style="fill:#2A6041;" d="M273.18,459.269h-9.552v-1.318h9.552V459.269z M273.18,456.359h-9.552v-1.592h9.552V456.359z
							 M273.18,453.175h-9.552v-1.592h9.552V453.175z M273.18,449.991h-9.552v-1.592h9.552V449.991z M273.18,446.807h-9.552v-1.592
							h9.552V446.807z M273.18,443.624h-9.552v-1.592h9.552V443.624z M273.18,440.44h-9.552v-1.592h9.552V440.44z M273.18,437.256
							h-9.552v-1.592h9.552V437.256z M273.18,434.072h-9.552v-1.592h9.552V434.072z M273.18,430.888h-9.552v-1.592h9.552V430.888z
							 M273.18,427.704h-9.552v-1.592h9.552V427.704z M273.18,424.521h-9.552v-1.592h9.552V424.521z M273.18,421.337h-9.552v-1.592
							h9.552V421.337z M273.18,418.153h-9.552v-1.592h9.552V418.153z M273.18,414.969h-9.552v-1.592h9.552V414.969z M273.18,411.785
							h-9.552v-1.592h9.552V411.785z M273.18,408.601h-9.552v-1.592h9.552V408.601z M273.18,405.417h-9.552v-1.592h9.552V405.417z
							 M273.18,402.233h-9.552v-1.592h9.552V402.233z M273.18,399.05h-9.552v-1.592h9.552V399.05z M273.18,395.866h-9.552v-1.592
							h9.552V395.866z M273.18,392.682h-9.552v-1.592h9.552V392.682z M273.18,389.498h-9.552v-1.592h9.552V389.498z M273.18,386.314
							h-9.552v-1.592h9.552V386.314z M273.18,383.13h-9.552v-1.592h9.552V383.13z M273.18,379.947h-9.552v-1.592h9.552V379.947z
							 M273.18,376.763h-9.552v-1.592h9.552V376.763z M273.18,373.579h-9.552v-1.592h9.552V373.579z M273.18,370.395h-9.552v-1.592
							h9.552V370.395z M273.18,367.211h-9.552v-1.592h9.552V367.211z M273.18,364.027h-9.552v-1.592h9.552V364.027z M273.18,360.844
							h-9.552v-1.592h9.552V360.844z M273.18,357.66h-9.552v-1.592h9.552V357.66z M273.18,354.476h-9.552v-1.592h9.552V354.476z
							 M273.18,351.292h-9.552V349.7h9.552V351.292z M273.18,348.108h-9.552v-1.592h9.552V348.108z M273.18,344.924h-9.552v-1.592
							h9.552V344.924z M273.18,341.74h-9.552v-1.592h9.552V341.74z M273.186,338.612l-9.552-0.112
							c0.007-0.561,0.019-1.122,0.036-1.681l9.547,0.295C273.201,337.612,273.191,338.112,273.186,338.612z M273.278,335.621
							l-9.539-0.488c0.029-0.563,0.062-1.123,0.102-1.681l9.528,0.673C273.334,334.622,273.304,335.12,273.278,335.621z
							 M273.49,332.634l-9.513-0.866c0.051-0.56,0.108-1.119,0.169-1.677l9.494,1.052
							C273.585,331.639,273.535,332.136,273.49,332.634z M273.821,329.66l-9.471-1.244c0.073-0.558,0.152-1.115,0.236-1.669
							l9.444,1.429C273.956,328.67,273.885,329.164,273.821,329.66z M274.27,326.701l-9.413-1.62
							c0.096-0.558,0.198-1.113,0.306-1.667l9.376,1.822C274.444,325.723,274.355,326.211,274.27,326.701z M274.837,323.772
							l-9.337-2.01c0.118-0.552,0.243-1.101,0.372-1.649l9.295,2.201C275.051,322.798,274.942,323.284,274.837,323.772z
							 M275.524,320.863l-9.248-2.389c0.141-0.543,0.286-1.084,0.436-1.625l9.202,2.564
							C275.779,319.894,275.649,320.378,275.524,320.863z M276.328,317.98l-9.146-2.755c0.163-0.54,0.33-1.077,0.503-1.612
							l9.088,2.94C276.62,317.027,276.472,317.502,276.328,317.98z M277.249,315.134l-9.028-3.122
							c0.184-0.532,0.374-1.062,0.568-1.59l8.962,3.305C277.579,314.194,277.411,314.663,277.249,315.134z M278.281,312.332
							l-8.891-3.492c0.205-0.523,0.415-1.042,0.63-1.559l8.818,3.67C278.648,311.41,278.463,311.87,278.281,312.332z
							 M279.426,309.575l-8.748-3.834c0.225-0.515,0.457-1.028,0.693-1.538l8.665,4.017
							C279.829,308.671,279.625,309.121,279.426,309.575z M280.68,306.871l-8.588-4.182c0.247-0.507,0.499-1.01,0.757-1.512
							l8.494,4.367C281.118,305.983,280.896,306.427,280.68,306.871z M282.041,304.219l-8.411-4.527
							c0.267-0.496,0.539-0.989,0.816-1.478l8.313,4.704C282.516,303.348,282.275,303.782,282.041,304.219z M283.507,301.625
							l-8.219-4.867c0.285-0.481,0.576-0.961,0.87-1.436l8.124,5.023C284.019,300.768,283.761,301.195,283.507,301.625z
							 M285.082,299.082l-8.023-5.181c0.306-0.475,0.618-0.945,0.934-1.412l7.908,5.356
							C285.623,298.253,285.351,298.666,285.082,299.082z M286.751,296.611l-7.804-5.506c0.323-0.459,0.652-0.915,0.985-1.367
							l7.694,5.662C287.33,295.801,287.039,296.204,286.751,296.611z M288.527,294.2l-7.585-5.805
							c0.343-0.448,0.692-0.893,1.045-1.334l7.456,5.97C289.134,293.418,288.828,293.808,288.527,294.2z M290.387,291.873
							l-7.335-6.117c0.359-0.432,0.724-0.86,1.091-1.283l7.213,6.26C291.03,291.11,290.707,291.49,290.387,291.873z
							 M292.346,289.616l-7.081-6.41c0.376-0.415,0.755-0.827,1.139-1.235l6.96,6.54
							C293.021,288.876,292.682,289.245,292.346,289.616z M294.398,287.432l-6.831-6.677c0.395-0.403,0.793-0.802,1.195-1.197
							l6.691,6.817C295.098,286.723,294.747,287.075,294.398,287.432z M296.532,285.337l-6.556-6.948
							c0.409-0.385,0.821-0.767,1.238-1.145l6.417,7.075C297.261,284.655,296.894,284.994,296.532,285.337z M298.747,283.328
							l-6.27-7.206c0.425-0.37,0.852-0.735,1.284-1.095l6.125,7.328C299.504,282.676,299.124,283,298.747,283.328z M301.046,281.407
							l-5.981-7.448c0.439-0.352,0.881-0.7,1.327-1.043l5.831,7.565C301.828,280.785,301.435,281.093,301.046,281.407z
							 M303.414,279.58l-5.67-7.686c0.452-0.333,0.907-0.664,1.367-0.989l5.519,7.796
							C304.222,278.991,303.816,279.284,303.414,279.58z M305.86,277.848l-5.362-7.904c0.466-0.317,0.936-0.629,1.408-0.935
							l5.202,8.011C306.688,277.292,306.273,277.568,305.86,277.848z M308.373,276.216l-5.042-8.114
							c0.48-0.298,0.961-0.59,1.446-0.878l4.875,8.213C309.223,275.693,308.796,275.952,308.373,276.216z M310.953,274.684
							l-4.718-8.305c0.493-0.28,0.987-0.553,1.485-0.823l4.538,8.404C311.82,274.198,311.385,274.439,310.953,274.684z
							 M313.582,273.262l-4.367-8.495c0.501-0.257,1.004-0.51,1.51-0.758l4.199,8.579
							C314.475,272.809,314.028,273.033,313.582,273.262z M316.276,271.943l-4.023-8.662c0.511-0.238,1.025-0.47,1.542-0.697
							l3.848,8.742C317.185,271.527,316.73,271.733,316.276,271.943z M319.021,270.735l-3.671-8.818
							c0.522-0.218,1.047-0.43,1.573-0.636l3.485,8.893C319.944,270.356,319.481,270.544,319.021,270.735z M321.813,269.639
							l-3.308-8.961c0.53-0.195,1.063-0.386,1.598-0.571l3.12,9.028C322.751,269.298,322.281,269.466,321.813,269.639z
							 M324.648,268.657l-2.941-9.088c0.538-0.174,1.077-0.342,1.618-0.505l2.756,9.145
							C325.602,268.354,325.124,268.502,324.648,268.657z M327.513,267.793l-2.564-9.201c0.54-0.15,1.081-0.296,1.625-0.436
							l2.389,9.249C328.478,267.529,327.994,267.659,327.513,267.793z M330.413,267.046l-2.198-9.295
							c0.547-0.129,1.095-0.253,1.646-0.371l2.013,9.337C331.385,266.821,330.898,266.931,330.413,267.046z M333.337,266.417
							l-1.822-9.376c0.551-0.107,1.105-0.209,1.66-0.305l1.634,9.411C334.315,266.232,333.826,266.322,333.337,266.417z
							 M336.284,265.907l-1.443-9.441c0.556-0.085,1.113-0.164,1.673-0.238l1.25,9.47
							C337.269,265.763,336.776,265.832,336.284,265.907z M339.247,265.517l-1.059-9.493c0.558-0.062,1.118-0.119,1.68-0.17
							l0.866,9.512C340.238,265.411,339.742,265.462,339.247,265.517z M342.228,265.244l-0.679-9.527
							c0.56-0.04,1.122-0.074,1.684-0.103l0.488,9.539C343.222,265.179,342.724,265.209,342.228,265.244z M345.214,265.091
							l-0.294-9.547c0.56-0.018,1.12-0.029,1.682-0.036l0.112,9.551C346.213,265.065,345.713,265.075,345.214,265.091z
							 M348.288,265.051l-0.076-9.551c0.5-0.004,0.998-0.013,1.495-0.027l0.268,9.548
							C349.413,265.036,348.851,265.047,348.288,265.051z M351.657,264.957l-0.454-9.541c0.499-0.024,0.997-0.053,1.493-0.086
							l0.645,9.53C352.781,264.898,352.22,264.931,351.657,264.957z M355.024,264.729l-0.836-9.515
							c0.498-0.044,0.995-0.092,1.49-0.146l1.025,9.496C356.145,264.625,355.586,264.68,355.024,264.729z M358.379,264.367
							l-1.216-9.474c0.495-0.063,0.988-0.132,1.48-0.205l1.408,9.447C359.496,264.218,358.938,264.296,358.379,264.367z
							 M361.716,263.871l-1.593-9.418c0.491-0.083,0.981-0.171,1.469-0.264l1.788,9.383
							C362.828,263.676,362.273,263.776,361.716,263.871z M365.031,263.239l-1.97-9.346c0.487-0.103,0.972-0.211,1.457-0.323
							l2.164,9.303C366.134,263.001,365.583,263.124,365.031,263.239z M368.325,262.474l-2.356-9.257
							c0.484-0.123,0.967-0.251,1.447-0.384l2.537,9.209C369.412,262.191,368.869,262.335,368.325,262.474z M371.578,261.577
							l-2.725-9.155c0.478-0.143,0.954-0.29,1.429-0.441l2.909,9.098C372.655,261.25,372.118,261.417,371.578,261.577z
							 M374.796,260.548l-3.098-9.036c0.473-0.162,0.944-0.328,1.412-0.499l3.276,8.972
							C375.858,260.178,375.328,260.366,374.796,260.548z M377.963,259.392l-3.453-8.906c0.465-0.18,0.927-0.365,1.388-0.555
							l3.633,8.833C379.011,258.979,378.488,259.188,377.963,259.392z M381.081,258.11l-3.81-8.759
							c0.455-0.198,0.908-0.401,1.359-0.608l3.989,8.679C382.108,257.656,381.596,257.886,381.081,258.11z M384.144,256.701
							l-4.171-8.593c0.449-0.218,0.895-0.44,1.34-0.666l4.333,8.512C385.148,256.208,384.648,256.457,384.144,256.701z
							 M387.137,255.177l-4.501-8.425c0.438-0.234,0.872-0.471,1.304-0.714l4.676,8.328
							C388.127,254.641,387.633,254.911,387.137,255.177z M390.075,253.529l-4.84-8.235c0.43-0.253,0.857-0.509,1.281-0.77
							l5.001,8.138C391.04,252.955,390.559,253.244,390.075,253.529z M392.944,251.765l-5.164-8.034
							c0.419-0.27,0.834-0.543,1.247-0.82l5.326,7.929C393.887,251.152,393.417,251.461,392.944,251.765z M395.739,249.887
							l-5.48-7.824c0.409-0.286,0.813-0.576,1.214-0.869l5.636,7.712C396.656,249.237,396.2,249.565,395.739,249.887z
							 M398.462,247.896l-5.794-7.594c0.397-0.303,0.791-0.61,1.181-0.92l5.94,7.48C399.35,247.211,398.907,247.556,398.462,247.896
							z M401.099,245.801l-6.088-7.36c0.385-0.318,0.767-0.64,1.144-0.965l6.231,7.239
							C401.961,245.081,401.532,245.443,401.099,245.801z M403.654,243.598l-6.38-7.108c0.372-0.334,0.741-0.672,1.106-1.012
							l6.515,6.984C404.485,242.845,404.071,243.223,403.654,243.598z M406.118,241.296l-6.658-6.848
							c0.358-0.348,0.712-0.699,1.063-1.054l6.792,6.715C406.92,240.509,406.52,240.904,406.118,241.296z M408.49,238.896
							l-6.927-6.577c0.344-0.361,0.683-0.726,1.019-1.094l7.058,6.435C409.261,238.076,408.878,238.488,408.49,238.896z
							 M410.767,236.4l-7.19-6.287c0.33-0.377,0.656-0.757,0.979-1.141l7.307,6.152C411.501,235.553,411.136,235.978,410.767,236.4z
							 M412.937,233.821l-7.43-6.002c0.314-0.389,0.624-0.78,0.931-1.175l7.546,5.855
							C413.639,232.943,413.29,233.384,412.937,233.821z M415.008,231.15l-7.667-5.695c0.298-0.402,0.592-0.806,0.883-1.214
							l7.776,5.547C415.674,230.245,415.343,230.7,415.008,231.15z M416.967,228.404l-7.885-5.391
							c0.282-0.412,0.559-0.826,0.832-1.243l7.994,5.227C417.598,227.469,417.285,227.938,416.967,228.404z M418.82,225.571
							l-8.101-5.06c0.265-0.424,0.526-0.851,0.783-1.281l8.198,4.902C419.411,224.615,419.117,225.094,418.82,225.571z
							 M420.549,222.678l-8.288-4.748c0.246-0.431,0.489-0.865,0.726-1.301l8.39,4.565
							C421.106,221.692,420.831,222.187,420.549,222.678z M422.168,219.705l-8.476-4.403c0.229-0.442,0.455-0.888,0.676-1.335
							l8.566,4.227C422.684,218.7,422.429,219.204,422.168,219.705z M423.668,216.667l-8.651-4.05
							c0.211-0.453,0.419-0.908,0.623-1.365l8.729,3.876C424.141,215.644,423.907,216.157,423.668,216.667z M425.04,213.576
							l-8.805-3.701c0.193-0.459,0.382-0.921,0.565-1.384l8.882,3.514C425.473,212.531,425.26,213.054,425.04,213.576z
							 M426.29,210.424l-8.95-3.335c0.174-0.468,0.344-0.938,0.509-1.41l9.017,3.15C426.679,209.363,426.487,209.895,426.29,210.424
							z M427.411,207.221l-9.082-2.96c0.155-0.477,0.307-0.956,0.454-1.436l9.137,2.786
							C427.756,206.15,427.585,206.687,427.411,207.221z M428.396,203.987l-9.193-2.592c0.135-0.481,0.267-0.964,0.393-1.448
							l9.241,2.417C428.695,202.907,428.548,203.448,428.396,203.987z M429.248,200.726l-9.287-2.229
							c0.116-0.483,0.227-0.969,0.333-1.457l9.331,2.04C429.504,199.63,429.379,200.179,429.248,200.726z M429.969,197.426
							l-9.371-1.85c0.096-0.488,0.188-0.979,0.275-1.471l9.405,1.663C430.18,196.322,430.077,196.875,429.969,197.426z
							 M430.555,194.102l-9.438-1.472c0.077-0.492,0.148-0.986,0.216-1.481l9.465,1.285
							C430.722,192.992,430.641,193.548,430.555,194.102z M431.006,190.758l-9.489-1.094c0.058-0.493,0.109-0.987,0.156-1.483
							l9.51,0.894C431.129,189.638,431.07,190.2,431.006,190.758z M431.324,187.394l-9.525-0.701
							c0.036-0.497,0.068-0.996,0.096-1.496l9.538,0.517C431.402,186.275,431.365,186.835,431.324,187.394z M431.507,184.026
							l-9.545-0.323c0.016-0.499,0.029-0.999,0.037-1.5l9.55,0.14C431.54,182.906,431.526,183.467,431.507,184.026z
							 M431.557,180.682h-9.551v-1.592h9.551V180.682z M431.557,177.498h-9.551v-1.592h9.551V177.498z M431.557,174.314h-9.551
							v-1.592h9.551V174.314z M431.557,171.13h-9.551v-1.592h9.551V171.13z M431.557,167.947h-9.551v-1.592h9.551V167.947z
							 M431.557,164.763h-9.551v-1.592h9.551V164.763z M431.557,161.579h-9.551v-1.592h9.551V161.579z M431.557,158.395h-9.551
							v-1.592h9.551V158.395z M431.557,155.211h-9.551v-1.592h9.551V155.211z M431.557,152.027h-9.551v-1.592h9.551V152.027z
							 M431.557,148.843h-9.551v-1.592h9.551V148.843z M431.557,145.66h-9.551v-1.592h9.551V145.66z M431.557,142.476h-9.551v-1.592
							h9.551V142.476z M431.557,139.292h-9.551V137.7h9.551V139.292z M431.557,136.108h-9.551v-1.592h9.551V136.108z
							 M431.557,132.924h-9.551v-1.592h9.551V132.924z M431.557,129.74h-9.551v-1.592h9.551V129.74z M431.557,126.556h-9.551v-1.592
							h9.551V126.556z M431.557,123.373h-9.551v-1.592h9.551V123.373z M431.557,120.189h-9.551v-1.592h9.551V120.189z
							 M431.557,117.005h-9.551v-1.592h9.551V117.005z M431.557,113.821h-9.551v-1.592h9.551V113.821z M431.557,110.637h-9.551
							v-1.592h9.551V110.637z M431.557,107.453h-9.551v-1.592h9.551V107.453z M431.557,104.27h-9.551v-1.592h9.551V104.27z
							 M431.557,101.086h-9.551v-1.592h9.551V101.086z M431.557,97.902h-9.551V96.31h9.551V97.902z M431.557,94.718h-9.551v-1.592
							h9.551V94.718z M431.557,91.534h-9.551v-1.592h9.551V91.534z M431.557,88.35h-9.551v-1.592h9.551V88.35z M431.557,85.166
							h-9.551v-1.592h9.551V85.166z M431.557,81.982h-9.551v-1.592h9.551V81.982z M431.557,78.799h-9.551v-1.592h9.551V78.799z
							 M431.557,75.615h-9.551v-1.592h9.551V75.615z M431.557,72.431h-9.551v-1.592h9.551V72.431z M431.557,69.247h-9.551v-1.592
							h9.551V69.247z M431.557,66.063h-9.551v-1.592h9.551V66.063z M431.557,62.879h-9.551v-1.592h9.551V62.879z"/>
					</g>
					<g style="clip-path:url(#SVGID_00000149365275735213412090000013015202769527170984_);">
						<g>
							<path style="fill:#2A6041;" d="M410.746,78.448H287.112c-1.358,0-2.459-1.101-2.459-2.458l0,0
								c0-1.358,1.101-2.459,2.459-2.459h123.633c1.358,0,2.459,1.101,2.459,2.459l0,0
								C413.204,77.347,412.103,78.448,410.746,78.448z"/>
							<path style="fill:none;stroke:#28965A;stroke-width:0.796;stroke-miterlimit:10;" d="M410.746,93.409H287.112
								c-1.358,0-2.459-1.101-2.459-2.459l0,0c0-1.358,1.101-2.459,2.459-2.459h123.633c1.358,0,2.459,1.101,2.459,2.459l0,0
								C413.204,92.308,412.103,93.409,410.746,93.409z"/>
							<path style="fill:#FFFFFF;" d="M410.746,108.369H287.112c-1.358,0-2.459-1.101-2.459-2.459l0,0
								c0-1.358,1.101-2.458,2.459-2.458h123.633c1.358,0,2.459,1.101,2.459,2.458l0,0
								C413.204,107.269,412.103,108.369,410.746,108.369z"/>
							<path style="fill:#2A6041;" d="M410.746,123.33H287.112c-1.358,0-2.459-1.101-2.459-2.459v0c0-1.358,1.101-2.459,2.459-2.459
								h123.633c1.358,0,2.459,1.101,2.459,2.459v0C413.204,122.229,412.103,123.33,410.746,123.33z"/>
							<path style="fill:none;stroke:#28965A;stroke-width:0.796;stroke-miterlimit:10;" d="M410.746,138.291H342.83
								c-1.358,0-2.458-1.101-2.458-2.458l0,0c0-1.358,1.101-2.459,2.458-2.459h67.916c1.358,0,2.459,1.101,2.459,2.459l0,0
								C413.204,137.19,412.103,138.291,410.746,138.291z"/>
							<path style="fill:#FFFFFF;" d="M410.746,153.252H342.83c-1.358,0-2.458-1.101-2.458-2.459l0,0
								c0-1.358,1.101-2.459,2.458-2.459h67.916c1.358,0,2.459,1.101,2.459,2.459l0,0
								C413.204,152.151,412.103,153.252,410.746,153.252z"/>
							<path style="fill:#2A6041;" d="M410.746,168.212H342.83c-1.358,0-2.458-1.101-2.458-2.459l0,0
								c0-1.358,1.101-2.459,2.458-2.459h67.916c1.358,0,2.459,1.101,2.459,2.459l0,0
								C413.204,167.111,412.103,168.212,410.746,168.212z"/>
							<path style="fill:none;stroke:#28965A;stroke-width:0.796;stroke-miterlimit:10;" d="M410.746,183.173H342.83
								c-1.358,0-2.458-1.101-2.458-2.458l0,0c0-1.358,1.101-2.459,2.458-2.459h67.916c1.358,0,2.459,1.101,2.459,2.459l0,0
								C413.204,182.072,412.103,183.173,410.746,183.173z"/>
							<path style="fill:#FFFFFF;" d="M410.746,198.134H287.112c-1.358,0-2.459-1.101-2.459-2.459l0,0
								c0-1.358,1.101-2.459,2.459-2.459h123.633c1.358,0,2.459,1.101,2.459,2.459l0,0
								C413.204,197.033,412.103,198.134,410.746,198.134z"/>
							<path style="fill:#2A6041;" d="M398.806,213.094H295.072c-1.358,0-2.459-1.101-2.459-2.459l0,0
								c0-1.358,1.101-2.459,2.459-2.459h103.734c1.358,0,2.459,1.101,2.459,2.459l0,0
								C401.265,211.994,400.164,213.094,398.806,213.094z"/>
							<path style="fill:none;stroke:#28965A;stroke-width:0.796;stroke-miterlimit:10;" d="M394.826,228.055h-91.795
								c-1.358,0-2.459-1.101-2.459-2.458l0,0c0-1.358,1.101-2.459,2.459-2.459h91.795c1.358,0,2.459,1.101,2.459,2.459l0,0
								C397.285,226.954,396.184,228.055,394.826,228.055z"/>
							<path style="fill:#FFFFFF;" d="M370.948,243.016H326.91c-1.358,0-2.459-1.101-2.459-2.459l0,0
								c0-1.358,1.101-2.459,2.459-2.459h44.037c1.358,0,2.458,1.101,2.458,2.459l0,0
								C373.406,241.915,372.305,243.016,370.948,243.016z"/>
						</g>
						<g>
							<path style="fill:#2A6041;" d="M287.112,443.629h123.633c1.358,0,2.459,1.101,2.459,2.459l0,0
								c0,1.358-1.101,2.459-2.459,2.459H287.112c-1.358,0-2.459-1.101-2.459-2.459l0,0
								C284.654,444.73,285.754,443.629,287.112,443.629z"/>
							<path style="fill:none;stroke:#28965A;stroke-width:0.796;stroke-miterlimit:10;" d="M287.112,428.668h123.633
								c1.358,0,2.459,1.101,2.459,2.459l0,0c0,1.358-1.101,2.459-2.459,2.459H287.112c-1.358,0-2.459-1.101-2.459-2.459l0,0
								C284.654,429.769,285.754,428.668,287.112,428.668z"/>
							<path style="fill:#FFFFFF;" d="M287.112,413.708h123.633c1.358,0,2.459,1.101,2.459,2.459l0,0
								c0,1.358-1.101,2.458-2.459,2.458H287.112c-1.358,0-2.459-1.101-2.459-2.458l0,0
								C284.654,414.809,285.754,413.708,287.112,413.708z"/>
							<path style="fill:#2A6041;" d="M287.112,398.747h123.633c1.358,0,2.459,1.101,2.459,2.459l0,0
								c0,1.358-1.101,2.459-2.459,2.459H287.112c-1.358,0-2.459-1.101-2.459-2.459l0,0
								C284.654,399.848,285.754,398.747,287.112,398.747z"/>
							<path style="fill:none;stroke:#28965A;stroke-width:0.796;stroke-miterlimit:10;" d="M287.112,383.786h123.633
								c1.358,0,2.459,1.101,2.459,2.459l0,0c0,1.358-1.101,2.459-2.459,2.459H287.112c-1.358,0-2.459-1.101-2.459-2.459l0,0
								C284.654,384.887,285.754,383.786,287.112,383.786z"/>
							<path style="fill:#FFFFFF;" d="M287.112,368.826h123.633c1.358,0,2.459,1.101,2.459,2.459l0,0
								c0,1.358-1.101,2.458-2.459,2.458H287.112c-1.358,0-2.459-1.101-2.459-2.458l0,0
								C284.654,369.926,285.754,368.826,287.112,368.826z"/>
							<path style="fill:#2A6041;" d="M287.112,353.865h123.633c1.358,0,2.459,1.101,2.459,2.459l0,0
								c0,1.358-1.101,2.459-2.459,2.459H287.112c-1.358,0-2.459-1.101-2.459-2.459l0,0
								C284.654,354.966,285.754,353.865,287.112,353.865z"/>
							<path style="fill:none;stroke:#28965A;stroke-width:0.796;stroke-miterlimit:10;" d="M287.112,338.904h123.633
								c1.358,0,2.459,1.101,2.459,2.459l0,0c0,1.358-1.101,2.459-2.459,2.459H287.112c-1.358,0-2.459-1.101-2.459-2.459l0,0
								C284.654,340.005,285.754,338.904,287.112,338.904z"/>
							<path style="fill:#FFFFFF;" d="M287.112,323.944h123.633c1.358,0,2.459,1.101,2.459,2.459l0,0
								c0,1.358-1.101,2.458-2.459,2.458H287.112c-1.358,0-2.459-1.101-2.459-2.458l0,0
								C284.654,325.044,285.754,323.944,287.112,323.944z"/>
							<path style="fill:#2A6041;" d="M295.072,308.983h107.714c1.358,0,2.458,1.101,2.458,2.459l0,0
								c0,1.358-1.101,2.459-2.458,2.459H295.072c-1.358,0-2.459-1.101-2.459-2.459l0,0
								C292.613,310.084,293.714,308.983,295.072,308.983z"/>
							<path style="fill:none;stroke:#28965A;stroke-width:0.796;stroke-miterlimit:10;" d="M303.031,294.022h91.795
								c1.358,0,2.459,1.101,2.459,2.458l0,0c0,1.358-1.101,2.459-2.459,2.459h-91.795c-1.358,0-2.459-1.101-2.459-2.459l0,0
								C300.573,295.123,301.674,294.022,303.031,294.022z"/>
							<path style="fill:#FFFFFF;" d="M326.91,279.061h44.037c1.358,0,2.458,1.101,2.458,2.459l0,0c0,1.358-1.101,2.458-2.458,2.458
								H326.91c-1.358,0-2.459-1.101-2.459-2.458l0,0C324.452,280.162,325.553,279.061,326.91,279.061z"/>
						</g>
					</g>
				</g>
			</g>
			<g style="clip-path:url(#SVGID_00000006692465054557185430000011624337189366949040_);">
				<g>
					<g>
						<path style="fill:#FF8775;" d="M152.656,205.023c10.974,7.919,13.221,32.041,13.221,32.041l0,0
							c6.145,2.823,10.843,8.068,12.975,14.485l0.412,1.239l-9.667,3.761c0,0,3.225,23.464-4.649,28.189
							c-7.875,4.725-18.653,4.704-18.653,4.704l8.27,23.648l-42.959,1.654L98.009,213.315L152.656,205.023z"/>
						<path style="fill:#202C23;" d="M106.831,286.322c-3.808,1.741-8.2,2.176-12.276,1.214c-3.069-0.724-6.001-2.266-8.045-4.666
							c-2.045-2.4-2.837-6.001-2.21-9.091c-7.087-1.258-13.157-7.039-14.757-14.057c-1.6-7.018,1.508-14.739,7.349-18.945
							c-5.691-4.383-8.722-11.977-7.615-19.074c1.108-7.097,6.648-13.226,13.404-15.666c-1.113-5.734,0.816-11.969,4.973-16.073
							c4.157-4.103,10.633-6.287,16.352-5.1c4.75-6.76,14.169-9.807,21.979-7.11c2.683,0.926,5.18,2.808,6.382,5.38
							c4.39-3.841,10.553-5.673,16.275-4.54c5.722,1.132,10.692,5.238,12.634,10.739c4.321-1.936,9.677-0.656,13.182,2.527
							c3.505,3.183,5.277,7.975,5.479,12.705c0.216,5.056-1.265,10.17-4.149,14.328c-2.884,4.158-6.876,6.79-11.687,8.36
							c-0.467-2.184-0.984-4.489-1.752-6.586c-3.913,0.73-7.802-1.302-11.005-3.665c-2.198-1.622-3.867-3.264-5.022-5.74
							c0.136,3.359-1.283,6.749-3.77,9.01c-2.488,2.261-5.016,2.878-8.347,2.422c0.961,2.928,1.696,5.971,1.662,9.053
							c-0.034,3.082-0.89,6.226-2.831,8.62c-1.941,2.394-4.626,3.259-7.685,2.882c-1.329-1.965-3.094-3.813-5.395-4.392
							c-3.6-0.906-7.297,1.654-9.162,4.864c-2.825,4.862-2.446,11.395,0.92,15.899c0.74,0.99,1.616,1.89,2.656,2.556
							c2.416,1.546,5.682,1.653,8.194,0.267c0.939,6.194-0.664,13.101-4.092,18.345c-1.264,1.934-2.829,3.729-4.838,4.871
							C111.629,286.803,108.986,287.154,106.831,286.322z"/>
						<path style="fill:#202C23;" d="M160.149,241.301c0.349,2.12-0.519,4.029-1.939,4.263c-1.42,0.234-2.854-1.295-3.204-3.416
							c-0.349-2.12,0.519-4.029,1.939-4.262C158.365,237.651,159.8,239.18,160.149,241.301z"/>
						<g>
							<path style="fill:#202C23;" d="M147.097,240.529c0.067-1.667,0.555-3.329,1.301-4.893c0.773-1.553,1.873-2.978,3.253-4.139
								c0.687-0.58,1.404-1.15,2.187-1.636c0.785-0.478,1.663-0.8,2.573-0.926c0.909-0.126,1.836-0.116,2.734,0.071
								c0.895,0.176,1.767,0.504,2.523,1.085l-0.042,0.333c-0.852,0.377-1.607,0.658-2.33,0.938l-2.062,0.827
								c-0.662,0.271-1.319,0.49-2.006,0.69c-0.689,0.192-1.382,0.437-2.013,0.801c-1.257,0.728-2.419,1.702-3.409,2.869
								c-1.017,1.155-1.798,2.538-2.38,4.048L147.097,240.529z"/>
						</g>
						<g>
							<path style="fill:#202C23;" d="M170.058,268.452c-2.036-0.653-3.948-1.633-5.615-2.914c-1.661-1.279-3.088-2.878-3.986-4.731
								c1.122,1.726,2.692,3.081,4.416,4.096c1.73,1.014,3.629,1.699,5.563,2.062L170.058,268.452z"/>
						</g>
						<g>
							<path style="fill:#202C23;" d="M112.713,246.348c0.587-1.337,1.43-2.698,2.906-3.471c0.727-0.371,1.572-0.564,2.447-0.457
								c0.874,0.086,1.767,0.596,2.306,1.271c1.087,1.338,1.533,2.831,1.871,4.341c0.304,1.51,0.385,3.012,0.438,4.477l0.02,0.555
								l-0.469,0.201c-1.397,0.598-2.684,1.495-3.759,2.626l-0.017-0.691c0.976,1.265,2.095,2.436,3.334,3.536
								c-1.514-0.678-2.91-1.652-4.126-2.825l-0.3-0.289l0.282-0.403c0.99-1.413,2.353-2.583,3.928-3.367l-0.449,0.755
								c-0.137-1.455-0.244-2.885-0.516-4.25c-0.128-0.683-0.299-1.35-0.533-1.986c-0.241-0.63-0.498-1.273-0.858-1.75
								c-0.361-0.482-0.791-0.797-1.369-0.946c-0.574-0.133-1.231-0.09-1.852,0.101
								C114.748,244.184,113.675,245.238,112.713,246.348z"/>
						</g>
						<polygon style="fill:#202C23;" points="146.295,289.441 131.604,287.305 148.674,296.244 						"/>
					</g>
					<g style="opacity:0.4;">
						<g>
							<path style="fill:#28965A;" d="M132.814,200.42c-0.439-1.992-1.847-3.557-3.416-4.714c-1.588-1.167-3.492-1.862-5.417-2.032
								c-1.932-0.174-3.885,0.343-5.47,1.437c-1.605,1.055-2.874,2.642-3.488,4.468l-0.201,0.599l-0.423-0.462
								c-1.297-1.416-3.222-2.308-5.193-2.274c-1.963,0.04-3.937,0.928-5.276,2.476c1.159-1.679,3.141-2.837,5.255-2.969
								c2.107-0.136,4.295,0.677,5.759,2.267l-0.624,0.137c0.64-2.007,1.985-3.759,3.727-4.937c1.75-1.168,3.922-1.699,6-1.474
								c2.088,0.187,4.052,1.095,5.65,2.378C131.276,196.592,132.595,198.388,132.814,200.42z"/>
						</g>
						<g>
							<path style="fill:#28965A;" d="M106.013,254.516c-0.409-1.834-1.552-3.367-2.9-4.573c-1.36-1.207-3.041-2.032-4.793-2.302
								c-1.758-0.279-3.563,0.214-4.947,1.308c-1.412,1.056-2.437,2.622-2.913,4.339l-0.192,0.693l-0.45-0.556
								c-1.085-1.341-2.717-2.335-4.489-2.362c-1.762-0.035-3.516,0.889-4.624,2.361c0.918-1.586,2.671-2.79,4.618-2.85
								c1.935-0.067,3.847,0.883,5.066,2.387l-0.642,0.138c0.484-1.876,1.565-3.61,3.117-4.818c1.558-1.197,3.643-1.718,5.567-1.37
								c1.939,0.303,3.662,1.35,5.016,2.672C104.796,250.908,105.824,252.647,106.013,254.516z"/>
						</g>
						<g>
							<path style="fill:#28965A;" d="M160.813,209.18c0.451-1.332,0.183-2.738-0.307-3.975c-0.497-1.249-1.355-2.325-2.389-3.12
								c-1.041-0.797-2.336-1.204-3.633-1.153c-1.294,0.013-2.594,0.448-3.608,1.259l-0.493,0.394l-0.107-0.615
								c-0.22-1.265-0.966-2.484-2.096-3.196c-1.126-0.704-2.576-0.954-3.939-0.584c1.282-0.577,2.884-0.549,4.187,0.157
								c1.299,0.699,2.308,1.994,2.576,3.495l-0.6-0.221c1.133-0.949,2.587-1.482,4.061-1.525c1.476-0.026,2.963,0.487,4.1,1.407
								c1.162,0.898,1.955,2.185,2.398,3.537C161.402,206.379,161.471,207.933,160.813,209.18z"/>
						</g>
						<g>
							<path style="fill:#28965A;" d="M126.655,214.46c-1.242-0.659-2.673-0.621-3.972-0.336c-1.313,0.29-2.513,0.963-3.464,1.856
								c-0.955,0.9-1.564,2.112-1.723,3.4c-0.195,1.279,0.025,2.632,0.662,3.763l0.31,0.55l-0.624,0.007
								c-1.284,0.014-2.607,0.553-3.492,1.554c-0.876,0.998-1.356,2.39-1.211,3.794c-0.363-1.358-0.078-2.935,0.829-4.107
								c0.899-1.17,2.339-1.958,3.864-1.98l-0.314,0.556c-0.754-1.271-1.047-2.791-0.852-4.254c0.212-1.461,0.958-2.846,2.048-3.82
								c1.073-1.003,2.471-1.578,3.877-1.798C123.986,213.428,125.53,213.61,126.655,214.46z"/>
						</g>
						<g>
							<path style="fill:#28965A;" d="M98.281,221.888c-0.52-1.306-1.636-2.203-2.811-2.827c-1.188-0.629-2.539-0.892-3.842-0.827
								c-1.31,0.068-2.56,0.598-3.514,1.477c-0.977,0.849-1.684,2.023-1.931,3.297l-0.12,0.619l-0.48-0.399
								c-0.988-0.82-2.346-1.265-3.668-1.075c-1.314,0.194-2.581,0.944-3.378,2.109c0.602-1.271,1.84-2.288,3.29-2.595
								c1.442-0.31,3.05,0.021,4.227,0.991l-0.6,0.221c0.247-1.457,1.008-2.806,2.104-3.794c1.107-0.976,2.572-1.55,4.034-1.587
								c1.467-0.07,2.905,0.396,4.119,1.138C96.914,219.374,97.974,220.512,98.281,221.888z"/>
						</g>
						<g>
							<path style="fill:#28965A;" d="M116.59,269.44c-0.229,1.391-1.223,2.587-2.381,3.391c-1.17,0.81-2.58,1.356-4.048,1.369
								c-1.462,0.046-2.957-0.444-4.117-1.356c-1.149-0.925-1.985-2.228-2.314-3.669l0.611,0.186
								c-1.12,1.034-2.707,1.456-4.164,1.228c-1.466-0.225-2.759-1.171-3.432-2.405c0.862,1.118,2.17,1.795,3.492,1.915
								c1.331,0.115,2.661-0.406,3.601-1.281l0.457-0.425l0.155,0.612c0.318,1.259,1.091,2.391,2.114,3.183
								c1.002,0.824,2.28,1.283,3.592,1.276c1.304-0.009,2.638-0.348,3.789-1.043C115.081,271.732,116.144,270.773,116.59,269.44z"
								/>
						</g>
					</g>
				</g>
				<path style="fill:#FF8775;" d="M228.618,262.293c0,0,1.54-12.895,0-17.707c-1.54-4.812-6.559-18.905-4.234-31.372
					c2.325-12.467,13.088-25.79,14.435-25.213c1.347,0.577-7.52,26.56-7.52,26.56s14.08-27.943,17.336-26.578
					c3.255,1.365-10.008,31.197-10.008,31.197s15.86-28.898,17.737-26.766c1.877,2.131-10.808,28.778-10.808,28.778
					s10.357-20.681,12.685-17.986c2.328,2.695-8.643,24.635-8.835,29.062c-0.192,4.427,0.962,8.2,0.193,14.3
					c-0.77,6.101-2.31,18.226-2.31,18.226L228.618,262.293z"/>
				<path style="fill:#FFFFFF;" d="M129.023,298.013c-20.813,0.942-36.047,23.606-38.459,48.419
					c-2.412,24.813,0.409,62.383,0.409,62.383l-8.665,50.454l119.498-0.822l-18.57-79.729c0,0,55.287,14.247,62.04,5.551
					c6.753-8.696,15.193-126.215,15.193-126.215l-31.516-5.936l-11.954,90.958C216.999,343.075,156.85,296.754,129.023,298.013z"/>
				<g>
					<path style="fill:#2A6041;" d="M183.236,378.718c-4.865-1.421-9.713-2.867-14.544-4.355c-4.838-1.463-9.666-2.949-14.52-4.314
						c-4.852-1.385-9.705-2.689-14.666-3.376c-2.48-0.342-4.982-0.551-7.492-0.56c-2.509-0.036-5.033,0.121-7.509,0.653
						c2.389-0.883,4.947-1.204,7.484-1.433c2.548-0.178,5.113-0.135,7.658,0.106c2.549,0.219,5.07,0.671,7.57,1.191
						c2.484,0.566,4.948,1.196,7.389,1.889c4.878,1.405,9.703,2.962,14.473,4.67C173.855,374.878,178.578,376.718,183.236,378.718z"
						/>
				</g>
				<polygon style="fill:#2A6041;" points="215.809,354.232 216.999,343.075 211.327,338.784 				"/>
				
					<line style="fill:none;stroke:#2A6041;stroke-width:0.796;stroke-miterlimit:10;" x1="258.941" y1="277.83" x2="226.234" y2="272.809"/>
				<path style="fill:#2A6041;" d="M255.434,267.576c0,0.76-0.616,1.376-1.376,1.376c-0.76,0-1.376-0.616-1.376-1.376
					c0-0.76,0.616-1.376,1.376-1.376C254.818,266.2,255.434,266.816,255.434,267.576z"/>
			</g>
		</g>
		<g>
			<polyline style="fill:none;stroke:#2CEAA3;stroke-width:11.1435;stroke-miterlimit:10;" points="414.609,168.102 414.609,194.37 
				391.047,217.933 			"/>
			<polygon style="fill:#2CEAA3;" points="448.403,157.266 448.403,118.244 414.609,98.733 380.816,118.244 380.816,157.266 
				414.609,176.776 			"/>
			<polygon style="fill:#FFFFFF;" points="440.891,152.928 440.891,122.581 414.609,107.408 388.328,122.581 388.328,152.928 
				414.609,168.102 			"/>
			<g>
				<g>
					<polyline style="fill:none;stroke:#28965A;stroke-width:0.7777;stroke-miterlimit:10;" points="442.938,154.906 
						443.627,154.508 443.627,153.712 					"/>
					
						<line style="fill:none;stroke:#28965A;stroke-width:0.7777;stroke-miterlimit:10;stroke-dasharray:1.5197,1.5197;" x1="443.627" y1="152.192" x2="443.627" y2="122.557"/>
					<polyline style="fill:none;stroke:#28965A;stroke-width:0.7777;stroke-miterlimit:10;" points="443.627,121.797 
						443.627,121.002 442.938,120.604 					"/>
					
						<line style="fill:none;stroke:#28965A;stroke-width:0.7777;stroke-miterlimit:10;stroke-dasharray:1.5197,1.5197;" x1="441.621" y1="119.844" x2="415.957" y2="105.026"/>
					<polyline style="fill:none;stroke:#28965A;stroke-width:0.7777;stroke-miterlimit:10;" points="415.299,104.646 
						414.609,104.248 413.92,104.646 					"/>
					
						<line style="fill:none;stroke:#28965A;stroke-width:0.7777;stroke-miterlimit:10;stroke-dasharray:1.5197,1.5197;" x1="412.604" y1="105.406" x2="386.939" y2="120.224"/>
					<polyline style="fill:none;stroke:#28965A;stroke-width:0.7777;stroke-miterlimit:10;" points="386.281,120.604 
						385.592,121.002 385.592,121.797 					"/>
					
						<line style="fill:none;stroke:#28965A;stroke-width:0.7777;stroke-miterlimit:10;stroke-dasharray:1.5197,1.5197;" x1="385.592" y1="123.317" x2="385.592" y2="152.952"/>
					<polyline style="fill:none;stroke:#28965A;stroke-width:0.7777;stroke-miterlimit:10;" points="385.592,153.712 
						385.592,154.508 386.281,154.906 					"/>
					
						<line style="fill:none;stroke:#28965A;stroke-width:0.7777;stroke-miterlimit:10;stroke-dasharray:1.5197,1.5197;" x1="387.597" y1="155.666" x2="413.262" y2="170.483"/>
					<polyline style="fill:none;stroke:#28965A;stroke-width:0.7777;stroke-miterlimit:10;" points="413.92,170.863 
						414.609,171.261 415.299,170.863 					"/>
					
						<line style="fill:none;stroke:#28965A;stroke-width:0.7777;stroke-miterlimit:10;stroke-dasharray:1.5197,1.5197;" x1="416.615" y1="170.104" x2="442.28" y2="155.286"/>
				</g>
			</g>
			<g>
				<g>
					<polyline style="fill:none;stroke:#28965A;stroke-width:0.7045;stroke-miterlimit:10;" points="414.609,171.261 
						414.609,194.37 392.826,216.153 					"/>
					<g>
						<path style="fill:#28965A;" d="M391.047,214.187c-1.034,1.034-1.034,2.712,0,3.746c1.034,1.034,2.712,1.034,3.746,0
							c1.034-1.034,1.034-2.712,0-3.746C393.759,213.152,392.081,213.152,391.047,214.187z"/>
					</g>
				</g>
			</g>
			<g>
				<path style="fill:#2A6041;" d="M403.401,156.33L403.401,156.33c-0.721-0.422-0.963-1.349-0.541-2.07l12.128-20.706
					c0.422-0.721,1.349-0.963,2.07-0.541l0,0c0.721,0.422,0.963,1.349,0.541,2.07l-12.128,20.706
					C405.05,156.51,404.123,156.752,403.401,156.33z"/>
				
					<ellipse transform="matrix(0.8033 -0.5956 0.5956 0.8033 5.6627 275.1815)" style="fill:#FFFFFF;stroke:#28965A;stroke-width:1.8517;stroke-miterlimit:10;" cx="419.399" cy="129.019" rx="11.198" ry="11.198"/>
			</g>
		</g>
		<g>
			<polyline style="fill:none;stroke:#2CEAA3;stroke-width:11.1435;stroke-miterlimit:10;" points="379.589,407.648 
				353.321,407.648 323.204,377.531 			"/>
			<polygon style="fill:#2CEAA3;" points="390.747,440.884 429.125,440.884 448.314,407.648 429.125,374.412 390.747,374.412 
				371.559,407.648 			"/>
			<polygon style="fill:#FFFFFF;" points="394.763,433.929 425.11,433.929 440.283,407.648 425.11,381.366 394.763,381.366 
				379.589,407.648 			"/>
			<g>
				<g>
					<polyline style="fill:none;stroke:#28965A;stroke-width:0.7777;stroke-miterlimit:10;" points="392.785,435.976 
						393.183,436.665 393.979,436.665 					"/>
					
						<line style="fill:none;stroke:#28965A;stroke-width:0.7777;stroke-miterlimit:10;stroke-dasharray:1.5197,1.5197;" x1="395.499" y1="436.665" x2="425.134" y2="436.665"/>
					<polyline style="fill:none;stroke:#28965A;stroke-width:0.7777;stroke-miterlimit:10;" points="425.893,436.665 
						426.689,436.665 427.087,435.976 					"/>
					
						<line style="fill:none;stroke:#28965A;stroke-width:0.7777;stroke-miterlimit:10;stroke-dasharray:1.5197,1.5197;" x1="427.847" y1="434.66" x2="442.665" y2="408.995"/>
					<polyline style="fill:none;stroke:#28965A;stroke-width:0.7777;stroke-miterlimit:10;" points="443.045,408.337 
						443.443,407.648 443.045,406.958 					"/>
					
						<line style="fill:none;stroke:#28965A;stroke-width:0.7777;stroke-miterlimit:10;stroke-dasharray:1.5197,1.5197;" x1="442.285" y1="405.642" x2="427.467" y2="379.978"/>
					<polyline style="fill:none;stroke:#28965A;stroke-width:0.7777;stroke-miterlimit:10;" points="427.087,379.319 
						426.689,378.63 425.893,378.63 					"/>
					
						<line style="fill:none;stroke:#28965A;stroke-width:0.7777;stroke-miterlimit:10;stroke-dasharray:1.5197,1.5197;" x1="424.374" y1="378.63" x2="394.739" y2="378.63"/>
					<polyline style="fill:none;stroke:#28965A;stroke-width:0.7777;stroke-miterlimit:10;" points="393.979,378.63 393.183,378.63 
						392.785,379.319 					"/>
					
						<line style="fill:none;stroke:#28965A;stroke-width:0.7777;stroke-miterlimit:10;stroke-dasharray:1.5197,1.5197;" x1="392.025" y1="380.636" x2="377.207" y2="406.3"/>
					<polyline style="fill:none;stroke:#28965A;stroke-width:0.7777;stroke-miterlimit:10;" points="376.828,406.958 
						376.43,407.648 376.828,408.337 					"/>
					
						<line style="fill:none;stroke:#28965A;stroke-width:0.7777;stroke-miterlimit:10;stroke-dasharray:1.5197,1.5197;" x1="377.587" y1="409.653" x2="392.405" y2="435.318"/>
				</g>
			</g>
			<g>
				<g>
					<polyline style="fill:none;stroke:#28965A;stroke-width:0.7045;stroke-miterlimit:10;" points="376.43,407.648 
						353.321,407.648 331.537,385.865 					"/>
					<g>
						<path style="fill:#28965A;" d="M333.504,384.085c-1.034-1.034-2.712-1.034-3.746,0c-1.034,1.034-1.034,2.712,0,3.746
							c1.034,1.034,2.712,1.034,3.746,0C334.538,386.797,334.538,385.12,333.504,384.085z"/>
					</g>
				</g>
			</g>
		</g>
		<g>
			<polyline style="fill:none;stroke:#2CEAA3;stroke-width:13.8771;stroke-miterlimit:10;" points="157.02,105.983 189.732,105.983 
				219.075,135.326 			"/>
			<polygon style="fill:#2CEAA3;" points="143.525,63.899 94.931,63.899 70.634,105.983 94.931,148.067 143.525,148.067 
				167.822,105.983 			"/>
			<polygon style="fill:#FFFFFF;" points="138.124,73.255 100.332,73.255 81.437,105.983 100.332,138.712 138.124,138.712 
				157.02,105.983 			"/>
			<g>
				<g>
					<polyline style="fill:none;stroke:#28965A;stroke-width:0.7777;stroke-miterlimit:10;" points="140.489,70.537 140.091,69.847 
						139.295,69.847 					"/>
					
						<line style="fill:none;stroke:#28965A;stroke-width:0.7777;stroke-miterlimit:10;stroke-dasharray:1.6054,1.6054;" x1="137.69" y1="69.847" x2="99.964" y2="69.847"/>
					<polyline style="fill:none;stroke:#28965A;stroke-width:0.7777;stroke-miterlimit:10;" points="99.161,69.847 98.365,69.847 
						97.967,70.537 					"/>
					
						<line style="fill:none;stroke:#28965A;stroke-width:0.7777;stroke-miterlimit:10;stroke-dasharray:1.6054,1.6054;" x1="97.164" y1="71.927" x2="78.301" y2="104.599"/>
					<polyline style="fill:none;stroke:#28965A;stroke-width:0.7777;stroke-miterlimit:10;" points="77.9,105.294 77.502,105.983 
						77.9,106.673 					"/>
					
						<line style="fill:none;stroke:#28965A;stroke-width:0.7777;stroke-miterlimit:10;stroke-dasharray:1.6054,1.6054;" x1="78.703" y1="108.063" x2="97.566" y2="140.735"/>
					<polyline style="fill:none;stroke:#28965A;stroke-width:0.7777;stroke-miterlimit:10;" points="97.967,141.43 98.365,142.119 
						99.161,142.119 					"/>
					
						<line style="fill:none;stroke:#28965A;stroke-width:0.7777;stroke-miterlimit:10;stroke-dasharray:1.6054,1.6054;" x1="100.766" y1="142.119" x2="138.492" y2="142.119"/>
					<polyline style="fill:none;stroke:#28965A;stroke-width:0.7777;stroke-miterlimit:10;" points="139.295,142.119 
						140.091,142.119 140.489,141.43 					"/>
					
						<line style="fill:none;stroke:#28965A;stroke-width:0.7777;stroke-miterlimit:10;stroke-dasharray:1.6054,1.6054;" x1="141.292" y1="140.04" x2="160.155" y2="107.368"/>
					<polyline style="fill:none;stroke:#28965A;stroke-width:0.7777;stroke-miterlimit:10;" points="160.556,106.673 
						160.954,105.983 160.556,105.294 					"/>
					
						<line style="fill:none;stroke:#28965A;stroke-width:0.7777;stroke-miterlimit:10;stroke-dasharray:1.6054,1.6054;" x1="159.754" y1="103.904" x2="140.89" y2="71.232"/>
				</g>
			</g>
			<g>
				<g>
					<polyline style="fill:none;stroke:#28965A;stroke-width:0.7045;stroke-miterlimit:10;" points="160.954,105.983 
						189.732,105.983 217.296,133.546 					"/>
					<g>
						<path style="fill:#28965A;" d="M215.329,135.326c1.034,1.034,2.712,1.034,3.746,0s1.034-2.712,0-3.746
							c-1.034-1.034-2.712-1.034-3.746,0C214.295,132.614,214.295,134.292,215.329,135.326z"/>
					</g>
				</g>
			</g>
		</g>
		<g>
			<path style="fill:#28965A;" d="M120.581,101.824l0.675,0.675l0.675-0.675c6.505-6.505,6.505-17.052,0-23.557l-0.675-0.675
				l-0.675,0.675C114.076,84.772,114.076,95.318,120.581,101.824z"/>
			
				<line style="fill:none;stroke:#202C23;stroke-width:0.419;stroke-linecap:round;stroke-miterlimit:10;" x1="121.256" y1="77.591" x2="121.256" y2="138.712"/>
			<polyline style="fill:none;stroke:#202C23;stroke-width:0.419;stroke-linecap:round;stroke-miterlimit:10;" points="
				124.445,81.483 121.308,84.62 118.107,81.418 			"/>
			<polyline style="fill:none;stroke:#202C23;stroke-width:0.419;stroke-linecap:round;stroke-miterlimit:10;" points="
				126.392,86.329 121.308,91.412 116.139,86.243 			"/>
			<polyline style="fill:none;stroke:#202C23;stroke-width:0.419;stroke-linecap:round;stroke-miterlimit:10;" points="
				126.554,92.958 121.308,98.204 115.935,92.831 			"/>
			<path style="fill:#28965A;" d="M117.152,111.655h0.955v-0.955c0-9.2-7.458-16.657-16.657-16.657h-0.955v0.955
				C100.495,104.198,107.952,111.655,117.152,111.655z"/>
			
				<line style="fill:none;stroke:#202C23;stroke-width:0.419;stroke-linecap:round;stroke-miterlimit:10;" x1="100.495" y1="94.043" x2="121.276" y2="114.824"/>
			<polyline style="fill:none;stroke:#202C23;stroke-width:0.419;stroke-linecap:round;stroke-miterlimit:10;" points="
				105.501,94.541 105.501,98.976 100.974,98.976 			"/>
			<polyline style="fill:none;stroke:#202C23;stroke-width:0.419;stroke-linecap:round;stroke-miterlimit:10;" points="
				110.304,96.59 110.304,103.779 102.994,103.779 			"/>
			<polyline style="fill:none;stroke:#202C23;stroke-width:0.419;stroke-linecap:round;stroke-miterlimit:10;" points="
				115.107,101.163 115.107,108.582 107.509,108.582 			"/>
			<path style="fill:#28965A;" d="M117.152,129.93h0.955v-0.955c0-9.2-7.458-16.657-16.657-16.657h-0.955v0.955
				C100.495,122.472,107.952,129.93,117.152,129.93z"/>
			
				<line style="fill:none;stroke:#202C23;stroke-width:0.419;stroke-linecap:round;stroke-miterlimit:10;" x1="100.495" y1="112.317" x2="121.276" y2="133.099"/>
			<polyline style="fill:none;stroke:#202C23;stroke-width:0.419;stroke-linecap:round;stroke-miterlimit:10;" points="
				105.501,112.815 105.501,117.25 100.974,117.25 			"/>
			<polyline style="fill:none;stroke:#202C23;stroke-width:0.419;stroke-linecap:round;stroke-miterlimit:10;" points="
				110.304,114.864 110.304,122.053 102.994,122.053 			"/>
			<polyline style="fill:none;stroke:#202C23;stroke-width:0.419;stroke-linecap:round;stroke-miterlimit:10;" points="
				115.107,119.437 115.107,126.856 107.509,126.856 			"/>
			<path style="fill:#28965A;" d="M125.086,119.101h-0.955v-0.955c0-9.2,7.458-16.658,16.657-16.658h0.955v0.955
				C141.743,111.643,134.285,119.101,125.086,119.101z"/>
			
				<line style="fill:none;stroke:#202C23;stroke-width:0.419;stroke-linecap:round;stroke-miterlimit:10;" x1="141.743" y1="101.488" x2="121.276" y2="121.956"/>
			<polyline style="fill:none;stroke:#202C23;stroke-width:0.419;stroke-linecap:round;stroke-miterlimit:10;" points="
				136.736,101.986 136.736,106.421 141.264,106.421 			"/>
			<polyline style="fill:none;stroke:#202C23;stroke-width:0.419;stroke-linecap:round;stroke-miterlimit:10;" points="
				131.934,104.035 131.934,111.224 139.243,111.224 			"/>
			<polyline style="fill:none;stroke:#202C23;stroke-width:0.419;stroke-linecap:round;stroke-miterlimit:10;" points="
				127.131,108.608 127.131,116.027 134.729,116.027 			"/>
		</g>
		<g>
			<g>
				<path style="fill:#2CEAA3;" d="M413.687,398.673h-7.502l-11,22.243c-0.335,0.678,0.158,1.472,0.914,1.472h27.675
					c0.756,0,1.249-0.794,0.914-1.472L413.687,398.673z"/>
				
					<rect x="406.185" y="390.751" transform="matrix(-1 -1.224647e-16 1.224647e-16 -1 819.8722 790.4478)" style="fill:#2CEAA3;" width="7.502" height="8.945"/>
				<path style="fill:#2CEAA3;" d="M405.654,390.751h8.565c0.242,0,0.438-0.196,0.438-0.438l0,0c0-0.242-0.196-0.438-0.438-0.438
					h-8.565c-0.242,0-0.439,0.196-0.439,0.438l0,0C405.215,390.555,405.411,390.751,405.654,390.751z"/>
			</g>
			<g>
				<path style="fill:#2A6041;" d="M402.799,409.548c0.653-2.029,9.004,1.854,9.004,1.854s-5.692,2.165-7.3,1.377
					C402.894,411.99,402.799,409.548,402.799,409.548z"/>
				<g>
					<path style="fill:#28965A;" d="M397.57,420.123l5.23-10.575c0,0.782,1.342,1.727,2.554,1.935
						c2.518,0.433,3.802-0.246,7.443-2.05c1.755-0.87,3.001-0.953,3.821-0.806l5.686,11.496c0.173,0.35-0.082,0.761-0.472,0.761
						h-23.788C397.651,420.884,397.396,420.473,397.57,420.123z"/>
				</g>
			</g>
			<g style="opacity:0.4;">
				<path style="fill:#FFFFFF;" d="M409.219,389.875h5c0.242,0,0.438,0.196,0.438,0.438l0,0c0,0.242-0.196,0.438-0.438,0.438h-0.532
					v7.921l11,22.243c0.335,0.678-0.158,1.472-0.914,1.472h-3.422l-11.133-23.006V389.875z"/>
			</g>
			<g>
				<path style="fill:none;stroke:#28965A;stroke-width:0.3822;stroke-miterlimit:10;" d="M406.306,406.443
					c0-0.578,0.469-1.047,1.047-1.047c0.578,0,1.047,0.469,1.047,1.047s-0.469,1.047-1.047,1.047
					C406.775,407.49,406.306,407.021,406.306,406.443z"/>
				<path style="fill:none;stroke:#28965A;stroke-width:0.3822;stroke-miterlimit:10;" d="M407.353,401.289
					c0-0.591,0.479-1.069,1.069-1.069c0.59,0,1.069,0.478,1.069,1.069c0,0.59-0.479,1.069-1.069,1.069
					C407.831,402.358,407.353,401.879,407.353,401.289z"/>
				<path style="fill:none;stroke:#28965A;stroke-width:0.3822;stroke-miterlimit:10;" d="M410.182,398.618
					c0-0.422,0.342-0.763,0.763-0.763c0.421,0,0.763,0.342,0.763,0.763c0,0.421-0.342,0.763-0.763,0.763
					C410.523,399.381,410.182,399.039,410.182,398.618z"/>
				<path style="fill:none;stroke:#28965A;stroke-width:0.3822;stroke-miterlimit:10;" d="M409.54,404.502
					c0-1.045,0.847-1.893,1.893-1.893c1.045,0,1.893,0.847,1.893,1.893c0,1.045-0.847,1.893-1.893,1.893
					C410.387,406.395,409.54,405.547,409.54,404.502z"/>
			</g>
			
				<rect x="406.185" y="390.751" transform="matrix(-1 -1.224647e-16 1.224647e-16 -1 819.8722 782.1635)" style="opacity:0.2;fill:#28965A;" width="7.502" height="0.661"/>
		</g>
	</g>
</g>
</svg>
